<?xml version="1.0" encoding="UTF-8"?><svg id="Layer_2" xmlns="http://www.w3.org/2000/svg" viewBox="0 0 589.09 172.54"><defs><style>.cls-1{fill:#499dfd;}.cls-2{fill:#4d9efa;}.cls-3{fill:#4a9dfd;}.cls-4{fill:#489cfe;}.cls-5{fill:#4e9ffb;}.cls-6{fill:#4d9cf6;}.cls-7{fill:#62aaf2;}.cls-8{fill:#489dfe;}.cls-9{fill:#4d9ffb;}.cls-10{fill:#fefefe;}</style></defs><g id="Layer_1-2"><g><path class="cls-4" d="M368.2,111.79c5.09-16.56,10.17-33.12,15.28-49.68,1.11-3.58,1.58-8.21,6.45-8.3,5.25-.09,5.59,4.72,6.72,8.49,4.96,16.62,9.96,33.22,15.03,50.12,1.95-1.63,2.05-3.87,2.67-5.75,5.13-15.37,10.12-30.77,15.18-46.16,.46-1.41,.89-2.89,1.68-4.11,1.37-2.1,3.28-3.26,5.94-2.22,2.59,1.01,3.44,2.99,3.05,5.56-.17,1.13-.59,2.24-.95,3.33-6.97,20.86-13.95,41.71-20.93,62.56-.16,.47-.28,.96-.49,1.4-1.15,2.47-2.47,4.91-5.68,4.77-3.32-.14-4.77-2.41-5.66-5.37-4.89-16.31-9.86-32.59-14.8-48.87-.48-1.57-.96-3.14-1.57-5.12-2.45,2.87-2.67,6.23-3.59,9.22-4.5,14.52-8.78,29.11-13.15,43.67-.92,3.06-1.81,6.35-5.81,6.46-4.21,.12-5.35-3.13-6.44-6.41-6.79-20.39-13.62-40.77-20.45-61.15-.31-.94-.82-1.87-.9-2.83-.24-2.89-1.27-6.32,2.85-7.39,3.95-1.02,5.74,1.52,6.82,4.8,5.32,16.17,10.62,32.35,15.95,48.52,.5,1.51,1.1,2.99,1.66,4.48,.38-.02,.76-.03,1.14-.05Z"/><path class="cls-4" d="M301.05,53.21c9.09-.28,17.57,2.81,24.49,9.81,2.29,2.32,4.72,4.88,1.79,8.07-2.91,3.18-6.28,1.91-8.75-.66-6.78-7.04-15.09-8.33-24.24-7.22-2.7,.33-5.17,1.22-7.41,2.68-6.74,4.42-6.39,12.95,.67,17.01,4.39,2.52,9.26,3.52,14.18,4.39,5.72,1.01,11.37,2.22,16.66,4.77,7.47,3.61,12.08,9.09,12.27,17.7,.19,8.61-4.25,14.26-11.5,18.24-14.07,7.72-35.81,5.24-47.59-5.39-2.65-2.39-4.4-5-1.56-8.01,2.74-2.91,5.95-2.33,8.79,.31,8.91,8.31,19.63,8.9,30.77,6.79,6.07-1.15,10.42-6.03,10.82-10.97,.38-4.78-3.01-8.91-9.44-11.42-5.6-2.19-11.58-2.8-17.38-4.17-4.06-.96-8.03-2.18-11.62-4.29-6.38-3.76-10.56-8.9-10.41-16.81,.14-7.77,4.05-13.01,10.55-16.76,5.66-3.26,11.84-4.08,18.91-4.09Z"/><path class="cls-8" d="M561.28,67.6c0-13.09,.02-26.19-.02-39.28-.01-3.9,.26-7.69,5.37-7.81,5.21-.12,5.48,3.69,5.47,7.6-.03,25.69,0,51.38-.02,77.07,0,3.68,.26,7.28,1.94,10.65,1.68,3.36,4.06,5.57,8.16,5.31,3.69-.23,6.76,.56,6.9,5.11,.11,3.57-2.57,5.64-7.21,5.66-9.95,.04-17.48-6.76-19.68-17.63-1.53-7.56-.78-15.2-.89-22.8-.12-7.95-.03-15.91-.03-23.87Z"/><path class="cls-8" d="M509.88,64.6c7.48-8.8,16.85-13.06,28.53-11.2,1.94,.31,3.93,.78,5.68,1.64,1.89,.92,2.94,2.61,2.36,4.94-.57,2.27-2.01,3.23-4.31,3.31-5.62,.22-11.24-.6-16.85,.87-10.16,2.67-16.06,9.87-16.1,20.41-.05,13.26-.06,26.52,0,39.78,.02,3.84-.69,7.11-5.3,7.48-3.69,.29-5.52-2.33-5.52-7.65-.01-20.88,.05-41.77-.05-62.65-.02-4.1,.68-7.77,5.48-7.72,4.82,.05,5.54,3.88,5.41,7.88-.03,.9-.44,1.95,.69,2.92Z"/><path class="cls-1" d="M469.48,93.18c0,10.43-.02,20.86,.01,31.29,.01,3.79-.58,7.33-5.33,7.31-4.62-.02-5.58-3.54-5.59-7.29-.05-21.19-.04-42.38,0-63.57,0-3.86,1.27-7.2,5.78-7.07,4.24,.13,5.17,3.34,5.15,7.05-.06,10.76-.02,21.52-.02,32.28Z"/><path class="cls-1" d="M229.1,61.46c5.53-.09,10.42,4.4,10.58,9.71,.16,5.5-4.69,10.63-10.23,10.82-5.2,.18-10.34-4.68-10.55-9.96-.22-5.73,4.35-10.47,10.2-10.57Z"/><path class="cls-3" d="M471.79,30.77c.05,4.09-3.29,7.55-7.4,7.65-4.38,.11-7.99-3.36-7.93-7.64,.06-4.13,3.43-7.35,7.68-7.32,4.47,.03,7.59,3.01,7.65,7.31Z"/><path class="cls-9" d="M161.83,166.02c-.13,3.97-2.15,6.35-5.72,6.51-3.63,.16-5.95-2.19-6.06-5.83-.11-3.74,2.2-5.8,5.91-5.87,3.56-.07,5.36,2.06,5.87,5.19Z"/><path class="cls-5" d="M28.8,86.13c3.09,.53,5.35,2.33,5.28,5.83-.07,3.64-2.27,6.02-5.95,5.95-3.62-.07-5.93-2.4-5.79-6.08,.14-3.65,2.4-5.65,6.46-5.7Z"/><path class="cls-9" d="M134.38,14.37c3.76,.12,5.75,2.15,5.77,5.89,.02,3.62-2.37,5.6-5.6,5.75-3.61,.17-6.12-2.28-6.21-5.74-.08-3.46,2.13-5.77,6.03-5.9Z"/><path class="cls-9" d="M5.57,11.75C1.92,11.38-.04,9.32,0,5.62,.04,2.06,2.27,.04,5.6,0c3.6-.04,6.04,2.37,6.07,5.84,.03,3.5-2.34,5.61-6.1,5.9Z"/><path class="cls-7" d="M246.73,94.83c-.03,1.9-1.18,2.74-2.53,2.76-1.35,.02-2.56-.81-2.55-2.46,.02-1.75,.93-2.87,2.74-2.74,1.5,.11,2.28,1.16,2.34,2.43Z"/><g><path class="cls-2" d="M86.06,117.95s.02,.01,.02,.02c0,0,.01,0,.02,.01l-.05-.03Z"/><path class="cls-2" d="M98.04,126.91s.02,.02,.03,.03c0,0,0,0,0,0l-.04-.03Z"/><path class="cls-2" d="M102.07,129.85h0s0,0,0,0c0,0,0,0,0,0"/><path class="cls-2" d="M247.24,111.86c-8.03,15.2-11.48,17.7-29.25,20.58-7.59,1.23-15.24,.85-22.87,.11-23.07-2.22-43.59-11.11-62.64-23.81-3.24-2.16-6.75-4.23-8.81-9.59,8.63,4.5,17.6,3.47,25.34,7.81,14.41,8.09,30.01,11.34,46.52,9.93,13.56-1.16,21.9-13.16,18.24-26.08-1-3.54-2.35-6.95-4.33-9.99-12.19-18.72-28-33.31-47.44-44.04-.08-.04-.17-.09-.25-.13-4.07-1.91-6.12-3.04-9.83-3.91,2.15,3.27,4.74,5.51,8.9,7.91h0c4.7,3.92,9.43,7.8,14.1,11.75,11.24,9.52,21.2,20,26.16,34.3,3.46,9.96,.52,18.34-8.55,21.1-12.29,3.74-24.29,1.47-35.84-3.62-1.89-.83-2.27-1.86-.86-3.81,2.29-3.15,5.3-3.37,8.75-3.36,8.64,.03,13.84-3.37,14.63-9.68,.51-4.05-.97-7.91-3.07-11.27-5.58-8.89-12.48-16.65-21.13-22.74-3.49-3.85-7.99-6.4-12.18-9.35C112.65,22.72,78.93,10.61,42.43,5.99c-5.08-.64-10.55-1.23-16.47,1.35l16.09,3.12c6.45,1.25,12.95,2.29,19.34,3.79,34.74,8.19,66.23,22.95,93.39,46.33,0,0,0,0,0,0,4.07,4.59,7.99,9.29,10.59,14.92,1.37,2.98,2.06,5.98,.42,9.06-1.64,3.08-6.43,5.04-7.76,2.95-3.39-5.36-8.83-9.16-11.72-14.62-3.3-6.23-7.74-11.15-13.17-15.29-19.76-15.06-42.18-24.22-66.45-28.98-13.78-2.71-27.72-3.81-41.46,.05-7.77,2.18-15.02,5.56-18.17,14.01-2.6,6.97-.6,16.72,4.23,20.03,.75-16,7.02-23.02,23.2-26.48,7.27-1.56,14.59-1.14,21.86-.9,25.74,.84,49.28,8.31,69.81,24.2,1.6,1.24,3.65,2.31,3.59,5.54-7.23-2.68-14.68-2.27-21.5-6.15-14.12-8.01-29.56-12.06-45.91-10.31-16.88,1.81-24.27,14.24-18.06,29.89,6.33,15.97,18.68,27.05,31.58,37.62,1.59,.7,2.8,1.91,4.09,3.01,1.55,.8,10.99,7.51,12.99,8.98l-.04-.03c3.44,1.82,14.13,9.12,16.66,10.08,1.4,.42,4.33,2.69,7.67,2.28-1.84-2.07-3.32-3.49-5.37-4.24,0,0,0,0,0,0,0,0,0,0,0,0l-30.76-22.4c-3.17-3.15-6.46-6.19-9.5-9.46-7.5-8.05-14.38-16.55-17.22-27.5-2.38-9.15,.9-16.56,8.56-19.23,13.81-4.82,26.84-1.62,39.58,4.07,.94,.42,2.8,1.42,1.7,2.39-2.45,2.15-3.39,6.8-8.16,5.58-1.15-.29-2.31-.6-3.49-.73-10.36-1.1-20.85,3.23-15.63,16.29,4.78,11.97,25.5,29.65,26.41,30.33,31.52,23.46,66.33,39.31,105.48,44.92,5.69,.81,11.56,1.1,18.62-.65-5.61-2.84-10.31-3.13-14.82-3.82-31.61-4.79-60.92-15.72-87.99-32.6-6.47-4.04-19.65-13.28-19.65-13.28,0,0,0,0,0,0,0,0,0,0,0,0-2.73-2.87-5.45-5.75-8.19-8.61-4.43-4.63-7.72-9.95-9.53-16.1-.9-3.06-.11-5.77,2.89-7.11,3.36-1.49,7.53-2.85,10.14,.3,2.44,2.94,5.18,6.12,5.99,10.15,1.14,5.68,4.62,10,8.76,13.55,29.92,25.65,64.83,38.18,104.17,38.39,8.53,.04,16.84-1.98,23.98-7.14,7.53-5.44,9.55-16.46,4.02-21.7ZM143.51,47.29s-.02-.05-.03-.07c.02,.01,.04,.03,.06,.04-.01,.01-.02,.02-.03,.04Z"/><path class="cls-2" d="M98.07,126.94c-1.54-.63-2.51-2.09-4.04-2.74l-2.99-2.15"/><path class="cls-2" d="M79.97,119.18s-.02-.01-.02-.02c0,0-.02,0-.02-.01l.05,.03Z"/></g><path class="cls-10" d="M141.8,94.27c-10.98-1.67-21.09-6.1-29-14.77-1.29-1.41-2.64-3.15-1.31-5.32,1.21-1.97,3.13-2.27,5.22-1.99,11.58,1.56,21.4,6.48,29.2,15.24,1.22,1.36,1.66,2.92,.93,4.56-.84,1.91-2.62,2.35-5.04,2.28Z"/><path class="cls-6" d="M42.85,8.45h-5.13c2.01-1.41,3.66-.43,5.13,0Z"/><circle class="cls-2" cx="120.07" cy="5.33" r="2.2"/><circle class="cls-2" cx="17.03" cy="82.76" r="2.2"/><circle class="cls-2" cx="136.95" cy="152.38" r="2.2"/></g></g></svg>