<?xml version="1.0" standalone="no"?>
<!DOCTYPE svg PUBLIC "-//W3C//DTD SVG 20010904//EN"
 "http://www.w3.org/TR/2001/REC-SVG-20010904/DTD/svg10.dtd">
<svg version="1.0" xmlns="http://www.w3.org/2000/svg"
 width="500.000000pt" height="500.000000pt" viewBox="0 0 500.000000 500.000000"
 preserveAspectRatio="xMidYMid meet">
<metadata>
Created by potrace 1.14, written by Peter Selinger 2001-2017
</metadata>
<g transform="translate(0.000000,500.000000) scale(0.100000,-0.100000)"
fill="#000000" stroke="none">
<path d="M0 2500 l0 -2500 2500 0 2500 0 0 2500 0 2500 -2500 0 -2500 0 0
-2500z m3489 2294 c58 -8 135 -24 171 -34 434 -120 747 -439 827 -840 8 -43
15 -144 17 -235 l2 -160 46 -125 c78 -213 126 -401 153 -600 60 -443 42 -868
-51 -1249 -74 -301 -236 -633 -409 -841 -216 -259 -464 -402 -774 -447 -96
-13 -130 -14 -222 -4 -184 20 -303 62 -484 172 -74 45 -92 51 -235 79 -357 70
-524 125 -825 270 -534 257 -949 616 -1205 1040 -222 368 -288 717 -198 1055
26 98 91 240 148 326 92 136 254 275 396 341 69 32 95 56 205 184 227 265 474
472 794 666 362 220 779 371 1124 407 136 15 406 12 520 -5z"/>
<path d="M2910 4544 c-14 -2 -69 -11 -123 -20 -340 -54 -692 -195 -1062 -427
-10 -6 -47 -33 -82 -59 -34 -27 -65 -48 -69 -48 -3 0 -20 -12 -38 -26 -17 -14
-68 -52 -113 -85 -90 -64 -121 -89 -198 -161 -43 -41 -47 -48 -27 -48 51 0
140 33 153 57 15 28 197 202 270 258 28 22 74 57 101 78 26 20 51 37 54 37 3
0 20 11 37 24 74 56 301 169 477 239 115 45 327 113 384 123 17 2 38 7 46 9 8
2 69 11 135 20 211 27 429 18 615 -27 107 -26 270 -88 335 -128 28 -17 40 -22
27 -11 -39 34 -184 108 -263 134 -129 44 -239 59 -444 62 -104 2 -201 1 -215
-1z"/>
<path d="M3962 4232 c42 -45 100 -117 128 -160 65 -96 69 -100 35 -32 -39 78
-104 158 -177 221 l-63 54 77 -83z"/>
<path d="M2770 4185 c-203 -23 -502 -100 -685 -176 -16 -6 -34 -13 -40 -15
-15 -4 -147 -53 -170 -64 -11 -5 -55 -25 -98 -45 -43 -19 -111 -54 -150 -76
-40 -23 -88 -50 -107 -61 -66 -37 -68 -46 -14 -53 27 -3 73 -11 102 -16 61
-12 104 -1 167 41 137 92 356 198 570 274 72 26 137 50 145 53 8 3 21 7 29 9
8 1 17 7 20 13 4 6 63 25 131 42 114 29 139 32 285 33 175 0 293 -16 422 -59
67 -23 201 -82 213 -95 3 -3 31 -23 64 -45 95 -65 198 -188 250 -299 57 -122
80 -328 52 -471 -24 -120 -88 -285 -121 -310 -7 -6 -30 -40 -51 -75 -63 -110
-164 -243 -164 -217 0 3 21 47 46 99 60 120 91 203 99 264 14 106 14 251 0
321 -29 148 -119 307 -223 390 -26 21 -53 44 -60 50 -27 25 -180 94 -264 117
-164 47 -402 57 -582 26 -209 -37 -667 -167 -666 -189 2 -28 50 -55 162 -91
202 -65 193 -73 -38 -31 -83 15 -121 18 -145 11 -19 -6 -62 -10 -96 -10 -80 0
-90 -16 -15 -24 154 -19 278 -40 384 -67 128 -32 307 -93 323 -111 7 -8 4 -9
-10 -4 -53 19 -294 67 -405 81 -258 31 -486 7 -659 -72 -55 -25 -133 -74 -159
-100 -7 -7 -17 -13 -22 -13 -15 0 -137 -127 -183 -192 -46 -64 -101 -172 -112
-219 -3 -13 -12 -53 -20 -89 -66 -292 78 -720 354 -1050 58 -70 248 -260 325
-325 33 -27 64 -54 70 -60 50 -46 193 -160 246 -196 36 -24 67 -47 70 -50 17
-22 268 -164 276 -156 1 1 -4 18 -11 37 -7 19 -22 60 -33 90 -27 72 -56 100
-170 160 -157 84 -310 191 -492 345 -52 44 -99 83 -105 87 -5 5 -32 26 -60 47
-27 22 -75 67 -105 102 -30 34 -63 70 -72 80 -10 11 -18 21 -18 24 0 3 -16 29
-35 59 -133 208 -205 435 -205 645 0 270 108 487 320 643 62 45 198 111 256
123 113 24 232 41 249 35 11 -4 61 -8 110 -9 106 -1 275 -20 275 -31 0 -4 -51
-10 -114 -13 -152 -8 -239 -30 -358 -89 -237 -117 -368 -272 -419 -496 -27
-119 -6 -326 48 -477 44 -122 155 -316 235 -410 131 -157 184 -211 380 -388
96 -86 132 -113 126 -89 -1 4 3 16 9 28 9 16 7 42 -12 125 -31 138 -40 197
-27 184 5 -5 17 -35 27 -65 38 -120 79 -216 105 -246 14 -17 42 -54 60 -83 19
-29 36 -48 38 -42 2 5 -11 43 -29 83 -55 125 -107 272 -133 374 -47 183 -75
401 -32 243 66 -240 166 -473 268 -624 61 -91 193 -229 258 -270 75 -47 179
-96 265 -123 70 -22 98 -25 230 -26 173 -1 229 10 359 74 93 45 105 52 166
100 252 196 463 557 556 950 34 146 87 436 104 577 13 105 20 335 11 382 l-6
35 -41 -46 c-22 -26 -54 -66 -70 -89 l-29 -42 -3 -201 c-2 -213 -21 -410 -53
-566 -11 -52 -22 -117 -24 -145 -7 -82 -10 -96 -39 -185 -119 -371 -399 -672
-726 -780 -145 -48 -357 -35 -514 31 -68 28 -186 108 -251 168 -67 63 -159
187 -149 202 3 5 0 9 -6 9 -6 0 -15 12 -21 28 -5 15 -30 65 -54 112 -49 97
-88 190 -81 197 3 3 29 -33 60 -79 72 -109 162 -217 189 -227 12 -5 33 -19 47
-31 31 -27 123 -82 183 -108 79 -35 178 -55 272 -55 482 1 850 478 991 1283 3
14 9 41 14 60 14 51 13 52 -25 47 -26 -4 -56 -23 -111 -73 -168 -152 -182
-150 -49 5 52 61 98 124 101 139 4 15 18 49 31 75 28 56 44 97 39 97 -3 0 -44
-53 -92 -117 -94 -127 -309 -350 -414 -429 -49 -37 -60 -42 -45 -22 11 15 23
28 26 28 9 0 199 217 250 285 107 142 194 307 239 450 27 88 37 270 21 381
-42 286 -219 526 -473 643 -66 30 -137 56 -185 67 -205 46 -397 59 -573 39z"/>
<path d="M4175 3923 c4 -10 14 -37 22 -61 8 -24 17 -41 19 -39 6 5 -36 117
-43 117 -3 0 -2 -8 2 -17z"/>
<path d="M1385 3495 c-39 -13 -39 -13 -9 -14 16 -1 39 6 50 14 23 18 12 18
-41 0z"/>
<path d="M4433 3274 c-21 -41 -36 -133 -25 -146 21 -26 82 -284 98 -413 58
-492 -29 -1035 -227 -1425 -61 -120 -164 -274 -229 -344 -21 -23 -49 -52 -62
-66 -12 -14 -45 -43 -73 -65 -27 -22 -61 -50 -74 -62 -13 -12 -39 -30 -58 -40
-18 -9 -33 -21 -33 -26 0 -5 17 2 38 14 169 103 299 235 427 435 266 416 391
1092 309 1669 -3 22 -7 60 -8 85 -8 127 -50 377 -66 394 -4 4 -12 0 -17 -10z"/>
<path d="M4181 3219 c-13 -39 -15 -82 -2 -59 10 18 24 90 17 90 -2 0 -9 -14
-15 -31z"/>
<path d="M829 3203 c-40 -43 -63 -73 -57 -73 2 0 26 25 52 55 54 63 57 73 5
18z"/>
<path d="M668 2967 c-31 -59 -68 -162 -67 -186 0 -9 5 -2 11 14 17 52 62 159
80 193 10 17 14 32 10 32 -4 0 -19 -24 -34 -53z"/>
<path d="M591 2744 c0 -11 3 -14 6 -6 3 7 2 16 -1 19 -3 4 -6 -2 -5 -13z"/>
<path d="M580 2690 c0 -16 2 -30 4 -30 2 0 6 14 8 30 3 17 1 30 -4 30 -4 0 -8
-13 -8 -30z"/>
<path d="M572 2501 c3 -339 222 -762 561 -1084 220 -209 584 -458 772 -528 33
-12 76 -31 95 -42 115 -65 474 -205 484 -189 2 4 -17 30 -44 58 -44 47 -53 51
-122 64 -40 8 -80 15 -88 16 -8 1 -53 16 -100 34 -47 17 -112 41 -145 52 -33
12 -85 34 -115 50 -30 15 -60 28 -66 28 -7 0 -14 4 -16 8 -1 4 -35 25 -75 45
-271 139 -638 454 -818 701 -16 23 -33 43 -37 44 -5 2 -8 7 -8 11 0 4 -22 44
-49 89 -61 102 -134 268 -167 380 -26 89 -29 107 -40 202 -4 30 -10 75 -14
100 -7 38 -8 32 -8 -39z"/>
<path d="M2510 952 c0 -12 49 -56 55 -50 7 7 -34 58 -46 58 -5 0 -9 -4 -9 -8z"/>
<path d="M3710 670 c-8 -5 -10 -10 -5 -10 6 0 17 5 25 10 8 5 11 10 5 10 -5 0
-17 -5 -25 -10z"/>
<path d="M3660 645 c-14 -8 -20 -14 -14 -15 5 0 19 7 30 15 24 18 16 19 -16 0z"/>
<path d="M3591 619 c-41 -16 -162 -38 -266 -48 l-100 -10 115 4 c112 4 194 19
262 49 36 16 27 20 -11 5z"/>
<path d="M3045 590 c19 -8 73 -14 64 -6 -2 2 -22 6 -44 9 -28 5 -34 4 -20 -3z"/>
</g>
</svg>
